<?xml version="1.0" standalone="no"?>
<!DOCTYPE svg PUBLIC "-//W3C//DTD SVG 20010904//EN"
 "http://www.w3.org/TR/2001/REC-SVG-20010904/DTD/svg10.dtd">
<svg version="1.0" xmlns="http://www.w3.org/2000/svg"
 width="2000.000000pt" height="439.000000pt" viewBox="0 0 2000.000000 439.000000"
 preserveAspectRatio="xMidYMid meet">

<g transform="translate(0.000000,439.000000) scale(0.100000,-0.100000)"
fill="#000000" stroke="none">
<path d="M4572 4355 c-66 -56 -62 93 -62 -2160 0 -1839 2 -2046 16 -2088 43
-128 175 -128 218 0 14 42 16 249 16 2088 0 1839 -2 2046 -16 2088 -20 58 -64
97 -109 97 -21 0 -44 -9 -63 -25z"/>
<path d="M844 4352 c-117 -35 -174 -70 -269 -166 -73 -74 -100 -109 -142 -191
-64 -123 -103 -238 -142 -418 -23 -103 -51 -190 -116 -351 -202 -504 -203
-709 -6 -1121 151 -316 392 -627 616 -793 60 -45 212 -127 268 -146 26 -8 24
-201 -3 -316 -42 -173 -31 -156 -106 -164 -112 -12 -314 -83 -314 -112 0 -20
136 -18 220 2 36 9 92 19 125 24 57 8 64 6 156 -35 109 -50 151 -59 157 -33 2
11 -16 32 -52 60 -37 28 -51 45 -43 50 27 17 83 6 176 -37 91 -42 161 -57 161
-36 0 16 -100 98 -154 127 -28 15 -52 28 -54 30 -6 4 78 209 100 245 13 20 39
55 59 78 l37 42 263 -16 c281 -17 366 -26 469 -52 141 -34 250 -107 675 -448
353 -284 459 -364 578 -439 113 -70 234 -118 291 -114 38 3 41 5 44 36 9 87
-118 244 -388 482 l-25 22 30 -18 c147 -89 244 -134 292 -134 24 0 25 27 4 68
-54 105 -296 357 -427 444 -38 25 -121 79 -184 121 -146 96 -250 182 -250 207
0 37 -103 428 -157 595 -111 345 -234 621 -359 810 -137 207 -408 444 -674
588 -119 64 -123 69 -122 168 2 88 9 106 64 158 64 61 225 91 485 91 84 0 153
4 153 8 0 4 -25 38 -55 75 -62 74 -138 136 -207 167 -60 26 -186 43 -292 39
l-84 -4 -42 69 c-91 147 -241 273 -383 324 -96 35 -279 41 -373 14z m470 -422
c35 -13 60 -54 52 -85 -16 -64 -86 -86 -131 -40 -40 39 -31 94 20 123 25 14
28 14 59 2z m-10 -2918 c-5 -42 -53 -262 -59 -270 -5 -6 -137 -24 -142 -19 -6
7 64 173 91 213 39 59 101 131 108 127 4 -2 5 -25 2 -51z"/>
<path d="M10870 3874 l0 -495 -57 49 c-74 63 -148 104 -243 134 -64 19 -95 23
-210 22 -118 -1 -145 -4 -215 -27 -290 -96 -482 -362 -534 -742 -16 -110 -13
-373 4 -485 40 -265 152 -484 313 -616 68 -56 193 -117 277 -135 83 -18 255
-16 339 5 96 23 215 88 285 155 l59 57 6 -55 c4 -31 9 -75 13 -98 l5 -43 199
0 199 0 0 1385 0 1385 -220 0 -220 0 0 -496z m-280 -655 c101 -23 193 -89 251
-178 l29 -45 0 -420 -1 -421 -38 -55 c-144 -208 -460 -242 -634 -68 -120 120
-176 351 -156 641 25 367 174 554 439 556 36 0 85 -4 110 -10z"/>
<path d="M12695 4260 c-423 -37 -737 -287 -884 -703 -69 -196 -76 -253 -76
-647 0 -335 1 -361 23 -458 88 -391 262 -637 559 -786 304 -152 766 -133 1065
44 86 51 206 164 261 244 84 124 148 299 164 446 l6 60 -226 0 -226 0 -6 -37
c-25 -145 -79 -275 -144 -346 -139 -151 -473 -192 -690 -86 -162 80 -267 257
-317 534 -25 139 -26 624 -1 765 35 203 93 333 196 442 106 113 221 158 408
158 133 0 196 -12 282 -52 145 -69 227 -204 266 -440 l6 -38 224 0 225 0 0 33
c-1 50 -35 193 -69 286 -75 205 -232 382 -426 479 -165 82 -401 121 -620 102z"/>
<path d="M5430 2916 l0 -1316 225 0 225 0 0 505 0 505 258 0 257 0 261 -503
261 -502 247 -3 c178 -2 246 1 246 9 0 8 -519 982 -586 1101 -3 4 24 21 58 38
152 78 271 191 336 321 55 110 72 180 79 315 22 439 -194 717 -634 815 -93 21
-126 22 -665 26 l-568 4 0 -1315z m1060 934 c90 -14 199 -69 248 -126 79 -89
106 -182 100 -338 -3 -83 -9 -111 -30 -158 -54 -117 -169 -204 -305 -233 -50
-11 -143 -15 -345 -15 l-278 0 0 440 0 440 273 0 c149 0 301 -5 337 -10z"/>
<path d="M8365 3580 c-140 -22 -297 -93 -407 -185 -172 -141 -294 -379 -329
-642 -17 -130 -6 -405 20 -512 85 -338 341 -586 681 -657 102 -21 325 -24 415
-5 232 48 441 174 540 324 l18 28 -39 40 c-21 23 -74 73 -118 112 l-79 72 -36
-41 c-100 -112 -216 -173 -371 -194 -289 -40 -525 130 -584 422 -9 42 -16 82
-16 88 0 7 203 10 640 10 l640 0 0 108 c0 267 -38 462 -121 632 -45 89 -65
117 -138 191 -98 98 -198 154 -336 190 -93 23 -288 33 -380 19z m220 -351
c158 -29 258 -133 300 -311 8 -35 15 -84 15 -110 l0 -48 -415 0 c-400 0 -415
1 -415 19 0 35 51 195 78 245 55 101 149 175 257 202 64 16 107 17 180 3z"/>
<path d="M14941 3579 c-106 -21 -230 -104 -301 -201 l-27 -37 -7 67 c-3 37 -6
84 -6 105 l0 37 -210 0 -210 0 0 -975 0 -975 220 0 220 0 0 673 0 672 35 53
c87 128 261 189 471 164 l71 -8 8 198 c4 108 4 201 1 207 -17 26 -173 38 -265
20z"/>
<path d="M16098 3579 c-269 -39 -485 -182 -618 -409 -145 -247 -186 -616 -104
-938 75 -299 287 -534 560 -622 227 -73 497 -59 702 36 328 151 512 485 512
928 0 270 -60 485 -185 661 -58 82 -169 184 -252 234 -165 98 -406 141 -615
110z m222 -350 c174 -28 307 -169 367 -389 28 -100 25 -435 -5 -541 -45 -166
-132 -288 -244 -343 -114 -55 -275 -54 -395 5 -193 94 -298 378 -265 718 21
210 71 341 166 437 101 100 225 138 376 113z"/>
<path d="M17360 3545 c0 -2 114 -422 254 -932 140 -510 259 -947 265 -971 l12
-42 182 2 182 3 187 610 c103 336 195 635 204 665 11 37 18 50 23 40 5 -8 99
-309 211 -667 l203 -653 182 0 181 0 265 973 265 972 -210 3 c-133 1 -212 -1
-216 -8 -3 -5 -73 -301 -154 -657 -82 -357 -152 -651 -155 -655 -4 -5 -97 291
-206 657 l-200 665 -167 0 -167 0 -20 -67 c-11 -38 -100 -334 -198 -660 -98
-326 -180 -589 -184 -585 -3 4 -75 301 -159 660 l-154 652 -213 0 c-117 0
-213 -2 -213 -5z"/>
<path d="M5430 465 l0 -435 110 0 110 0 0 435 0 435 -110 0 -110 0 0 -435z"/>
<path d="M10432 808 l3 -93 128 -3 127 -3 0 -339 0 -340 115 0 115 0 0 340 0
340 130 0 130 0 0 95 0 95 -375 0 -376 0 3 -92z"/>
<path d="M13690 465 l0 -435 110 0 110 0 0 435 0 435 -110 0 -110 0 0 -435z"/>
<path d="M6600 725 l0 -85 -55 0 -55 0 0 -85 0 -85 54 0 54 0 4 -147 c4 -155
12 -187 61 -240 35 -38 118 -63 211 -63 l83 0 7 53 c12 107 13 106 -46 105
-45 0 -56 4 -75 27 -21 24 -23 36 -23 145 l0 119 73 3 72 3 0 80 0 80 -72 3
-73 3 0 84 0 85 -110 0 -110 0 0 -85z"/>
<path d="M9680 725 l0 -85 -55 0 -55 0 0 -85 0 -85 55 0 55 0 0 -127 c0 -71 5
-144 10 -164 30 -106 103 -152 251 -157 l96 -4 6 63 c11 103 14 98 -45 97 -45
0 -56 4 -75 27 -21 24 -23 36 -23 145 l0 119 73 3 72 3 0 80 0 80 -72 3 -73 3
0 84 0 85 -110 0 -110 0 0 -85z"/>
<path d="M6121 637 c-18 -7 -51 -28 -72 -45 l-39 -33 0 40 0 41 -105 0 -105 0
0 -305 0 -305 110 0 110 0 0 185 c0 146 3 192 15 215 19 36 43 50 87 50 72 0
78 -20 78 -254 l0 -196 110 0 110 0 0 218 c0 119 -5 233 -10 253 -14 51 -49
100 -88 122 -42 25 -153 32 -201 14z"/>
<path d="M7221 631 c-65 -23 -97 -46 -138 -100 -91 -118 -79 -323 25 -424 66
-64 120 -82 252 -82 106 0 120 2 178 29 35 16 61 34 59 40 -2 6 -15 39 -27 74
-13 34 -26 61 -29 59 -50 -28 -98 -41 -158 -45 -72 -4 -73 -4 -108 31 -19 19
-35 44 -35 56 0 21 4 21 185 21 l185 0 0 52 c0 122 -60 232 -154 280 -58 30
-165 34 -235 9z m154 -137 c19 -8 45 -55 45 -84 0 -19 -6 -20 -95 -20 -52 0
-95 4 -95 9 0 20 20 61 40 81 20 20 71 27 105 14z"/>
<path d="M8055 641 c-52 -13 -95 -41 -115 -74 l-20 -32 0 53 0 52 -105 0 -105
0 0 -305 0 -305 110 0 110 0 0 168 c0 228 10 244 164 264 l88 11 -6 51 c-3 28
-6 68 -6 89 l0 37 -42 -1 c-24 -1 -56 -4 -73 -8z"/>
<path d="M8569 641 c-39 -12 -71 -31 -101 -59 l-28 -26 0 42 0 42 -105 0 -105
0 0 -305 0 -305 110 0 110 0 0 185 c0 121 4 193 12 210 24 52 110 73 148 35
19 -19 20 -33 20 -225 l0 -205 110 0 110 0 0 224 c0 240 -7 285 -53 335 -47
51 -151 75 -228 52z"/>
<path d="M9153 631 c-137 -47 -214 -175 -200 -331 10 -116 73 -206 176 -254
39 -18 65 -21 161 -21 106 0 120 2 178 29 35 16 61 34 59 40 -2 6 -15 39 -27
74 -13 34 -26 61 -29 59 -50 -28 -98 -41 -158 -45 -72 -4 -73 -4 -108 31 -19
19 -35 44 -35 56 0 21 4 21 185 21 l185 0 0 53 c0 65 -24 149 -56 196 -66 97
-205 136 -331 92z m172 -156 c16 -15 25 -36 25 -55 l0 -30 -96 0 c-84 0 -95 2
-90 16 3 9 6 21 6 28 0 8 12 25 26 40 36 35 95 36 129 1z"/>
<path d="M11489 634 c-30 -9 -59 -28 -83 -54 l-36 -40 0 50 0 51 -102 -3 -103
-3 -3 -302 -2 -303 110 0 110 0 0 153 c0 169 9 217 46 246 24 19 43 23 152 37
l52 6 0 43 c0 23 -3 63 -6 89 l-7 46 -41 -1 c-22 0 -62 -7 -87 -15z"/>
<path d="M11823 630 c-83 -22 -133 -45 -133 -63 0 -24 47 -132 56 -129 5 1 43
14 84 28 124 43 200 25 200 -48 l0 -28 -77 0 c-92 0 -190 -19 -227 -44 -49
-31 -67 -74 -64 -143 3 -51 9 -69 34 -100 43 -54 105 -83 175 -83 71 0 103 12
140 51 l29 31 0 -36 0 -36 100 0 100 0 0 208 c0 156 -4 221 -15 259 -39 130
-204 185 -402 133z m207 -369 c0 -35 -40 -86 -74 -95 -54 -13 -95 26 -82 79 7
28 44 43 109 44 46 1 47 0 47 -28z"/>
<path d="M13202 635 c-46 -14 -104 -53 -139 -94 -40 -47 -63 -124 -63 -215 0
-73 4 -90 31 -146 53 -105 150 -158 295 -159 84 -1 189 23 229 53 21 15 19 26
-22 124 l-13 32 -43 -21 c-57 -30 -162 -37 -205 -15 -29 15 -62 60 -62 86 0 6
64 10 191 10 l191 0 -7 68 c-10 106 -32 160 -85 213 -73 73 -190 98 -298 64z
m162 -157 c15 -13 29 -38 32 -55 l7 -33 -98 0 -97 0 6 33 c8 43 48 77 91 77
21 0 44 -9 59 -22z"/>
<path d="M14178 637 c-104 -30 -163 -97 -163 -186 1 -106 45 -144 216 -187
129 -32 147 -44 113 -78 -24 -25 -116 -20 -199 10 -38 13 -77 27 -86 30 -22 8
-73 -125 -55 -144 43 -46 279 -78 383 -53 101 25 162 95 163 184 0 106 -62
156 -250 197 -71 16 -90 26 -90 49 0 48 108 51 209 5 30 -13 58 -21 61 -17 4
5 17 34 30 67 l23 58 -24 18 c-62 48 -239 73 -331 47z"/>
<path d="M12303 578 c13 -29 72 -165 132 -301 l109 -248 94 3 93 3 130 289
c71 159 129 293 129 298 0 4 -47 8 -104 8 l-104 0 -34 -82 c-19 -46 -50 -120
-68 -166 -19 -45 -37 -79 -41 -75 -4 5 -34 78 -67 163 l-60 155 -116 3 -116 3
23 -53z"/>
</g>
</svg>
